<svg xmlns="http://www.w3.org/2000/svg" xmlns:xlink="http://www.w3.org/1999/xlink" width="500" zoomAndPan="magnify" viewBox="0 0 375 374.999991" height="500" preserveAspectRatio="xMidYMid meet" version="1.0"><defs><g/><clipPath id="1b62f6c753"><path d="M 119.167969 109 L 162 109 L 162 146 L 119.167969 146 Z M 119.167969 109 " clip-rule="nonzero"/></clipPath><clipPath id="f350a29f20"><path d="M 156 133 L 208 133 L 208 177.75 L 156 177.75 Z M 156 133 " clip-rule="nonzero"/></clipPath><clipPath id="a4c7fedbe3"><path d="M 201 37.5 L 269 37.5 L 269 96 L 201 96 Z M 201 37.5 " clip-rule="nonzero"/></clipPath></defs><g fill="#c29e0c" fill-opacity="1"><g transform="translate(97.647156, 294.947501)"><g><path d="M 11.21875 -14.203125 L 12.703125 -14.203125 L 12.703125 0 L 11.375 0 L 3.125 -11.59375 L 3.125 0 L 1.640625 0 L 1.640625 -14.203125 L 2.953125 -14.203125 L 11.21875 -2.59375 Z M 11.21875 -14.203125 "/></g></g></g><g fill="#c29e0c" fill-opacity="1"><g transform="translate(111.981498, 294.947501)"><g><path d="M 0.234375 0 L 6.140625 -14.203125 L 7.484375 -14.203125 L 13.140625 0 L 11.578125 0 L 10.09375 -3.796875 L 3.359375 -3.796875 L 1.8125 0 Z M 3.875 -5.09375 L 9.59375 -5.09375 L 6.796875 -12.296875 Z M 3.875 -5.09375 "/></g></g></g><g fill="#c29e0c" fill-opacity="1"><g transform="translate(125.436189, 294.947501)"><g><path d="M 10.921875 -14.203125 L 10.78125 -12.859375 L 6.234375 -12.859375 L 6.234375 0 L 4.6875 0 L 4.6875 -12.859375 L 0.046875 -12.859375 L 0.046875 -14.203125 Z M 10.921875 -14.203125 "/></g></g></g><g fill="#c29e0c" fill-opacity="1"><g transform="translate(136.351884, 294.947501)"><g><path d="M 1.640625 0 L 1.640625 -14.203125 L 3.1875 -14.203125 L 3.1875 0 Z M 1.640625 0 "/></g></g></g><g fill="#c29e0c" fill-opacity="1"><g transform="translate(141.169983, 294.947501)"><g><path d="M 7.59375 0.15625 C 6.28125 0.15625 5.140625 -0.117188 4.171875 -0.671875 C 3.203125 -1.222656 2.457031 -2.019531 1.9375 -3.0625 C 1.414062 -4.101562 1.15625 -5.363281 1.15625 -6.84375 C 1.15625 -8.320312 1.445312 -9.628906 2.03125 -10.765625 C 2.613281 -11.910156 3.410156 -12.800781 4.421875 -13.4375 C 5.441406 -14.082031 6.628906 -14.40625 7.984375 -14.40625 C 9.222656 -14.40625 10.3125 -14.109375 11.25 -13.515625 C 12.1875 -12.929688 12.914062 -12.113281 13.4375 -11.0625 C 13.957031 -10.019531 14.21875 -8.789062 14.21875 -7.375 C 14.21875 -5.84375 13.929688 -4.515625 13.359375 -3.390625 C 12.785156 -2.265625 12 -1.390625 11 -0.765625 C 10.007812 -0.148438 8.875 0.15625 7.59375 0.15625 Z M 7.59375 -1.265625 C 8.59375 -1.265625 9.46875 -1.503906 10.21875 -1.984375 C 10.976562 -2.472656 11.570312 -3.175781 12 -4.09375 C 12.425781 -5.019531 12.640625 -6.128906 12.640625 -7.421875 C 12.640625 -8.554688 12.445312 -9.539062 12.0625 -10.375 C 11.6875 -11.207031 11.148438 -11.847656 10.453125 -12.296875 C 9.765625 -12.753906 8.945312 -12.984375 8 -12.984375 C 6.96875 -12.984375 6.054688 -12.722656 5.265625 -12.203125 C 4.472656 -11.691406 3.851562 -10.976562 3.40625 -10.0625 C 2.957031 -9.144531 2.734375 -8.070312 2.734375 -6.84375 C 2.734375 -5.050781 3.164062 -3.671875 4.03125 -2.703125 C 4.90625 -1.742188 6.09375 -1.265625 7.59375 -1.265625 Z M 7.59375 -1.265625 "/></g></g></g><g fill="#c29e0c" fill-opacity="1"><g transform="translate(156.543918, 294.947501)"><g><path d="M 11.21875 -14.203125 L 12.703125 -14.203125 L 12.703125 0 L 11.375 0 L 3.125 -11.59375 L 3.125 0 L 1.640625 0 L 1.640625 -14.203125 L 2.953125 -14.203125 L 11.21875 -2.59375 Z M 11.21875 -14.203125 "/></g></g></g><g fill="#c29e0c" fill-opacity="1"><g transform="translate(170.87826, 294.947501)"><g><path d="M 0.234375 0 L 6.140625 -14.203125 L 7.484375 -14.203125 L 13.140625 0 L 11.578125 0 L 10.09375 -3.796875 L 3.359375 -3.796875 L 1.8125 0 Z M 3.875 -5.09375 L 9.59375 -5.09375 L 6.796875 -12.296875 Z M 3.875 -5.09375 "/></g></g></g><g fill="#c29e0c" fill-opacity="1"><g transform="translate(184.332952, 294.947501)"><g><path d="M 1.640625 0 L 1.640625 -14.203125 L 3.1875 -14.203125 L 3.1875 -1.34375 L 9.8125 -1.34375 L 9.6875 0 Z M 1.640625 0 "/></g></g></g><g fill="#c29e0c" fill-opacity="1"><g transform="translate(194.009137, 294.947501)"><g/></g></g><g fill="#c29e0c" fill-opacity="1"><g transform="translate(198.567341, 294.947501)"><g><path d="M 11.875 -1.546875 L 12.21875 -0.34375 C 11.800781 -0.03125 11.253906 0.125 10.578125 0.125 C 10.003906 0.125 9.484375 -0.0078125 9.015625 -0.28125 C 8.546875 -0.550781 8.09375 -1.003906 7.65625 -1.640625 L 5 -5.5625 C 4.820312 -5.8125 4.613281 -6.019531 4.375 -6.1875 C 4.132812 -6.351562 3.890625 -6.4375 3.640625 -6.4375 L 3.15625 -6.4375 L 3.15625 0 L 1.640625 0 L 1.640625 -14.203125 L 5.640625 -14.203125 C 7.222656 -14.203125 8.4375 -13.859375 9.28125 -13.171875 C 10.132812 -12.484375 10.5625 -11.546875 10.5625 -10.359375 C 10.5625 -9.503906 10.347656 -8.789062 9.921875 -8.21875 C 9.503906 -7.644531 8.941406 -7.210938 8.234375 -6.921875 C 7.535156 -6.628906 6.757812 -6.484375 5.90625 -6.484375 L 5.78125 -6.484375 C 6.15625 -6.296875 6.535156 -5.914062 6.921875 -5.34375 L 8.78125 -2.625 C 9.03125 -2.238281 9.25 -1.941406 9.4375 -1.734375 C 9.632812 -1.535156 9.835938 -1.398438 10.046875 -1.328125 C 10.253906 -1.253906 10.507812 -1.21875 10.8125 -1.21875 C 11.019531 -1.21875 11.207031 -1.25 11.375 -1.3125 C 11.550781 -1.375 11.71875 -1.453125 11.875 -1.546875 Z M 5.515625 -12.921875 L 3.15625 -12.921875 L 3.15625 -7.6875 L 5.34375 -7.6875 C 6.507812 -7.6875 7.410156 -7.894531 8.046875 -8.3125 C 8.691406 -8.726562 9.015625 -9.394531 9.015625 -10.3125 C 9.015625 -11.132812 8.734375 -11.773438 8.171875 -12.234375 C 7.617188 -12.691406 6.734375 -12.921875 5.515625 -12.921875 Z M 5.515625 -12.921875 "/></g></g></g><g fill="#c29e0c" fill-opacity="1"><g transform="translate(210.202754, 294.947501)"><g><path d="M 9.859375 -12.875 L 3.15625 -12.875 L 3.15625 -7.875 L 9.6875 -7.875 L 9.6875 -6.5625 L 3.15625 -6.5625 L 3.15625 -1.3125 L 10.140625 -1.3125 L 10.015625 0 L 1.640625 0 L 1.640625 -14.203125 L 9.859375 -14.203125 Z M 9.859375 -12.875 "/></g></g></g><g fill="#c29e0c" fill-opacity="1"><g transform="translate(221.038477, 294.947501)"><g><path d="M 8.359375 -6.875 L 13.296875 -6.875 L 13.296875 0 L 12.125 0 L 11.921875 -1.90625 C 11.003906 -0.53125 9.523438 0.15625 7.484375 0.15625 C 6.203125 0.15625 5.085938 -0.117188 4.140625 -0.671875 C 3.191406 -1.234375 2.457031 -2.035156 1.9375 -3.078125 C 1.414062 -4.117188 1.15625 -5.375 1.15625 -6.84375 C 1.15625 -8.332031 1.445312 -9.644531 2.03125 -10.78125 C 2.625 -11.914062 3.441406 -12.800781 4.484375 -13.4375 C 5.535156 -14.082031 6.773438 -14.40625 8.203125 -14.40625 C 10.492188 -14.40625 12.15625 -13.507812 13.1875 -11.71875 L 11.984375 -10.8125 C 11.191406 -12.238281 9.894531 -12.953125 8.09375 -12.953125 C 7.03125 -12.953125 6.097656 -12.695312 5.296875 -12.1875 C 4.492188 -11.675781 3.867188 -10.957031 3.421875 -10.03125 C 2.984375 -9.113281 2.765625 -8.050781 2.765625 -6.84375 C 2.765625 -5.050781 3.1875 -3.671875 4.03125 -2.703125 C 4.882812 -1.742188 6.070312 -1.265625 7.59375 -1.265625 C 8.894531 -1.265625 9.925781 -1.59375 10.6875 -2.25 C 11.457031 -2.90625 11.84375 -3.800781 11.84375 -4.9375 L 11.84375 -5.625 L 8.359375 -5.625 Z M 8.359375 -6.875 "/></g></g></g><g fill="#c29e0c" fill-opacity="1"><g transform="translate(235.572748, 294.947501)"><g><path d="M 1.640625 0 L 1.640625 -14.203125 L 3.1875 -14.203125 L 3.1875 0 Z M 1.640625 0 "/></g></g></g><g fill="#c29e0c" fill-opacity="1"><g transform="translate(240.390847, 294.947501)"><g><path d="M 5.796875 0.15625 C 2.648438 0.15625 0.914062 -1.296875 0.59375 -4.203125 L 2.046875 -4.40625 C 2.242188 -3.269531 2.644531 -2.453125 3.25 -1.953125 C 3.851562 -1.453125 4.738281 -1.203125 5.90625 -1.203125 C 6.882812 -1.203125 7.648438 -1.425781 8.203125 -1.875 C 8.765625 -2.320312 9.046875 -2.9375 9.046875 -3.71875 C 9.046875 -4.226562 8.925781 -4.632812 8.6875 -4.9375 C 8.457031 -5.25 8.101562 -5.5 7.625 -5.6875 C 7.15625 -5.882812 6.5625 -6.0625 5.84375 -6.21875 C 4.957031 -6.414062 4.1875 -6.65625 3.53125 -6.9375 C 2.882812 -7.21875 2.378906 -7.617188 2.015625 -8.140625 C 1.660156 -8.660156 1.484375 -9.378906 1.484375 -10.296875 C 1.484375 -11.085938 1.675781 -11.789062 2.0625 -12.40625 C 2.457031 -13.03125 3 -13.519531 3.6875 -13.875 C 4.375 -14.226562 5.160156 -14.40625 6.046875 -14.40625 C 7.265625 -14.40625 8.265625 -14.070312 9.046875 -13.40625 C 9.828125 -12.738281 10.289062 -11.8125 10.4375 -10.625 L 9.09375 -10.375 C 8.90625 -11.300781 8.5625 -11.976562 8.0625 -12.40625 C 7.5625 -12.832031 6.875 -13.046875 6 -13.046875 C 5.09375 -13.046875 4.367188 -12.800781 3.828125 -12.3125 C 3.285156 -11.820312 3.015625 -11.171875 3.015625 -10.359375 C 3.015625 -9.492188 3.296875 -8.867188 3.859375 -8.484375 C 4.421875 -8.097656 5.273438 -7.785156 6.421875 -7.546875 C 7.296875 -7.359375 8.039062 -7.125 8.65625 -6.84375 C 9.28125 -6.570312 9.753906 -6.191406 10.078125 -5.703125 C 10.410156 -5.222656 10.578125 -4.566406 10.578125 -3.734375 C 10.578125 -2.960938 10.375 -2.28125 9.96875 -1.6875 C 9.5625 -1.101562 9 -0.648438 8.28125 -0.328125 C 7.5625 -0.00390625 6.734375 0.15625 5.796875 0.15625 Z M 5.796875 0.15625 "/></g></g></g><g fill="#c29e0c" fill-opacity="1"><g transform="translate(251.706387, 294.947501)"><g><path d="M 10.921875 -14.203125 L 10.78125 -12.859375 L 6.234375 -12.859375 L 6.234375 0 L 4.6875 0 L 4.6875 -12.859375 L 0.046875 -12.859375 L 0.046875 -14.203125 Z M 10.921875 -14.203125 "/></g></g></g><g fill="#c29e0c" fill-opacity="1"><g transform="translate(262.622081, 294.947501)"><g><path d="M 11.875 -1.546875 L 12.21875 -0.34375 C 11.800781 -0.03125 11.253906 0.125 10.578125 0.125 C 10.003906 0.125 9.484375 -0.0078125 9.015625 -0.28125 C 8.546875 -0.550781 8.09375 -1.003906 7.65625 -1.640625 L 5 -5.5625 C 4.820312 -5.8125 4.613281 -6.019531 4.375 -6.1875 C 4.132812 -6.351562 3.890625 -6.4375 3.640625 -6.4375 L 3.15625 -6.4375 L 3.15625 0 L 1.640625 0 L 1.640625 -14.203125 L 5.640625 -14.203125 C 7.222656 -14.203125 8.4375 -13.859375 9.28125 -13.171875 C 10.132812 -12.484375 10.5625 -11.546875 10.5625 -10.359375 C 10.5625 -9.503906 10.347656 -8.789062 9.921875 -8.21875 C 9.503906 -7.644531 8.941406 -7.210938 8.234375 -6.921875 C 7.535156 -6.628906 6.757812 -6.484375 5.90625 -6.484375 L 5.78125 -6.484375 C 6.15625 -6.296875 6.535156 -5.914062 6.921875 -5.34375 L 8.78125 -2.625 C 9.03125 -2.238281 9.25 -1.941406 9.4375 -1.734375 C 9.632812 -1.535156 9.835938 -1.398438 10.046875 -1.328125 C 10.253906 -1.253906 10.507812 -1.21875 10.8125 -1.21875 C 11.019531 -1.21875 11.207031 -1.25 11.375 -1.3125 C 11.550781 -1.375 11.71875 -1.453125 11.875 -1.546875 Z M 5.515625 -12.921875 L 3.15625 -12.921875 L 3.15625 -7.6875 L 5.34375 -7.6875 C 6.507812 -7.6875 7.410156 -7.894531 8.046875 -8.3125 C 8.691406 -8.726562 9.015625 -9.394531 9.015625 -10.3125 C 9.015625 -11.132812 8.734375 -11.773438 8.171875 -12.234375 C 7.617188 -12.691406 6.734375 -12.921875 5.515625 -12.921875 Z M 5.515625 -12.921875 "/></g></g></g><g fill="#c29e0c" fill-opacity="1"><g transform="translate(274.257495, 294.947501)"><g><path d="M 11.375 -14.203125 L 6.265625 -6.421875 L 6.265625 0 L 4.71875 0 L 4.71875 -6.40625 L -0.453125 -14.203125 L 1.28125 -14.203125 L 5.5625 -7.765625 L 9.765625 -14.203125 Z M 11.375 -14.203125 "/></g></g></g><g fill="#c29e0c" fill-opacity="1"><g transform="translate(285.205741, 294.947501)"><g/></g></g><g fill="#c29e0c" fill-opacity="1"><g transform="translate(103.272156, 322.697499)"><g><path d="M 7.59375 0.15625 C 6.28125 0.15625 5.140625 -0.117188 4.171875 -0.671875 C 3.203125 -1.222656 2.457031 -2.019531 1.9375 -3.0625 C 1.414062 -4.101562 1.15625 -5.363281 1.15625 -6.84375 C 1.15625 -8.320312 1.445312 -9.628906 2.03125 -10.765625 C 2.613281 -11.910156 3.410156 -12.800781 4.421875 -13.4375 C 5.441406 -14.082031 6.628906 -14.40625 7.984375 -14.40625 C 9.222656 -14.40625 10.3125 -14.109375 11.25 -13.515625 C 12.1875 -12.929688 12.914062 -12.113281 13.4375 -11.0625 C 13.957031 -10.019531 14.21875 -8.789062 14.21875 -7.375 C 14.21875 -5.84375 13.929688 -4.515625 13.359375 -3.390625 C 12.785156 -2.265625 12 -1.390625 11 -0.765625 C 10.007812 -0.148438 8.875 0.15625 7.59375 0.15625 Z M 7.59375 -1.265625 C 8.59375 -1.265625 9.46875 -1.503906 10.21875 -1.984375 C 10.976562 -2.472656 11.570312 -3.175781 12 -4.09375 C 12.425781 -5.019531 12.640625 -6.128906 12.640625 -7.421875 C 12.640625 -8.554688 12.445312 -9.539062 12.0625 -10.375 C 11.6875 -11.207031 11.148438 -11.847656 10.453125 -12.296875 C 9.765625 -12.753906 8.945312 -12.984375 8 -12.984375 C 6.96875 -12.984375 6.054688 -12.722656 5.265625 -12.203125 C 4.472656 -11.691406 3.851562 -10.976562 3.40625 -10.0625 C 2.957031 -9.144531 2.734375 -8.070312 2.734375 -6.84375 C 2.734375 -5.050781 3.164062 -3.671875 4.03125 -2.703125 C 4.90625 -1.742188 6.09375 -1.265625 7.59375 -1.265625 Z M 7.59375 -1.265625 "/></g></g></g><g fill="#c29e0c" fill-opacity="1"><g transform="translate(118.64609, 322.697499)"><g><path d="M 9.453125 -12.875 L 3.15625 -12.875 L 3.15625 -7.65625 L 9.28125 -7.65625 L 9.28125 -6.34375 L 3.15625 -6.34375 L 3.15625 0 L 1.640625 0 L 1.640625 -14.203125 L 9.453125 -14.203125 Z M 9.453125 -12.875 "/></g></g></g><g fill="#c29e0c" fill-opacity="1"><g transform="translate(128.322275, 322.697499)"><g/></g></g><g fill="#c29e0c" fill-opacity="1"><g transform="translate(132.88048, 322.697499)"><g><path d="M 10.921875 -14.203125 L 10.78125 -12.859375 L 6.234375 -12.859375 L 6.234375 0 L 4.6875 0 L 4.6875 -12.859375 L 0.046875 -12.859375 L 0.046875 -14.203125 Z M 10.921875 -14.203125 "/></g></g></g><g fill="#c29e0c" fill-opacity="1"><g transform="translate(143.796174, 322.697499)"><g><path d="M 9.859375 -12.875 L 3.15625 -12.875 L 3.15625 -7.875 L 9.6875 -7.875 L 9.6875 -6.5625 L 3.15625 -6.5625 L 3.15625 -1.3125 L 10.140625 -1.3125 L 10.015625 0 L 1.640625 0 L 1.640625 -14.203125 L 9.859375 -14.203125 Z M 9.859375 -12.875 "/></g></g></g><g fill="#c29e0c" fill-opacity="1"><g transform="translate(154.631897, 322.697499)"><g><path d="M 0.234375 0 L 6.140625 -14.203125 L 7.484375 -14.203125 L 13.140625 0 L 11.578125 0 L 10.09375 -3.796875 L 3.359375 -3.796875 L 1.8125 0 Z M 3.875 -5.09375 L 9.59375 -5.09375 L 6.796875 -12.296875 Z M 3.875 -5.09375 "/></g></g></g><g fill="#c29e0c" fill-opacity="1"><g transform="translate(168.086589, 322.697499)"><g/></g></g><g fill="#c29e0c" fill-opacity="1"><g transform="translate(172.644793, 322.697499)"><g><path d="M 10.921875 -14.203125 L 10.78125 -12.859375 L 6.234375 -12.859375 L 6.234375 0 L 4.6875 0 L 4.6875 -12.859375 L 0.046875 -12.859375 L 0.046875 -14.203125 Z M 10.921875 -14.203125 "/></g></g></g><g fill="#c29e0c" fill-opacity="1"><g transform="translate(183.560488, 322.697499)"><g><path d="M 1.640625 0 L 1.640625 -14.203125 L 3.1875 -14.203125 L 3.1875 -7.90625 L 11.15625 -7.90625 L 11.15625 -14.203125 L 12.703125 -14.203125 L 12.703125 0 L 11.15625 0 L 11.15625 -6.546875 L 3.1875 -6.546875 L 3.1875 0 Z M 1.640625 0 "/></g></g></g><g fill="#c29e0c" fill-opacity="1"><g transform="translate(197.89483, 322.697499)"><g><path d="M 9.859375 -12.875 L 3.15625 -12.875 L 3.15625 -7.875 L 9.6875 -7.875 L 9.6875 -6.5625 L 3.15625 -6.5625 L 3.15625 -1.3125 L 10.140625 -1.3125 L 10.015625 0 L 1.640625 0 L 1.640625 -14.203125 L 9.859375 -14.203125 Z M 9.859375 -12.875 "/></g></g></g><g fill="#c29e0c" fill-opacity="1"><g transform="translate(208.730553, 322.697499)"><g><path d="M 11.875 -1.546875 L 12.21875 -0.34375 C 11.800781 -0.03125 11.253906 0.125 10.578125 0.125 C 10.003906 0.125 9.484375 -0.0078125 9.015625 -0.28125 C 8.546875 -0.550781 8.09375 -1.003906 7.65625 -1.640625 L 5 -5.5625 C 4.820312 -5.8125 4.613281 -6.019531 4.375 -6.1875 C 4.132812 -6.351562 3.890625 -6.4375 3.640625 -6.4375 L 3.15625 -6.4375 L 3.15625 0 L 1.640625 0 L 1.640625 -14.203125 L 5.640625 -14.203125 C 7.222656 -14.203125 8.4375 -13.859375 9.28125 -13.171875 C 10.132812 -12.484375 10.5625 -11.546875 10.5625 -10.359375 C 10.5625 -9.503906 10.347656 -8.789062 9.921875 -8.21875 C 9.503906 -7.644531 8.941406 -7.210938 8.234375 -6.921875 C 7.535156 -6.628906 6.757812 -6.484375 5.90625 -6.484375 L 5.78125 -6.484375 C 6.15625 -6.296875 6.535156 -5.914062 6.921875 -5.34375 L 8.78125 -2.625 C 9.03125 -2.238281 9.25 -1.941406 9.4375 -1.734375 C 9.632812 -1.535156 9.835938 -1.398438 10.046875 -1.328125 C 10.253906 -1.253906 10.507812 -1.21875 10.8125 -1.21875 C 11.019531 -1.21875 11.207031 -1.25 11.375 -1.3125 C 11.550781 -1.375 11.71875 -1.453125 11.875 -1.546875 Z M 5.515625 -12.921875 L 3.15625 -12.921875 L 3.15625 -7.6875 L 5.34375 -7.6875 C 6.507812 -7.6875 7.410156 -7.894531 8.046875 -8.3125 C 8.691406 -8.726562 9.015625 -9.394531 9.015625 -10.3125 C 9.015625 -11.132812 8.734375 -11.773438 8.171875 -12.234375 C 7.617188 -12.691406 6.734375 -12.921875 5.515625 -12.921875 Z M 5.515625 -12.921875 "/></g></g></g><g fill="#c29e0c" fill-opacity="1"><g transform="translate(220.365966, 322.697499)"><g><path d="M 0.234375 0 L 6.140625 -14.203125 L 7.484375 -14.203125 L 13.140625 0 L 11.578125 0 L 10.09375 -3.796875 L 3.359375 -3.796875 L 1.8125 0 Z M 3.875 -5.09375 L 9.59375 -5.09375 L 6.796875 -12.296875 Z M 3.875 -5.09375 "/></g></g></g><g fill="#c29e0c" fill-opacity="1"><g transform="translate(233.820658, 322.697499)"><g><path d="M 3.15625 0 L 1.640625 0 L 1.640625 -14.203125 L 6.234375 -14.203125 C 7.878906 -14.203125 9.15625 -13.847656 10.0625 -13.140625 C 10.976562 -12.429688 11.4375 -11.40625 11.4375 -10.0625 C 11.4375 -8.71875 10.96875 -7.660156 10.03125 -6.890625 C 9.101562 -6.117188 7.660156 -5.734375 5.703125 -5.734375 L 3.15625 -5.734375 Z M 6.078125 -12.921875 L 3.15625 -12.921875 L 3.15625 -7.046875 L 5.78125 -7.046875 C 7.257812 -7.046875 8.316406 -7.296875 8.953125 -7.796875 C 9.597656 -8.304688 9.921875 -9.0625 9.921875 -10.0625 C 9.921875 -11.050781 9.609375 -11.773438 8.984375 -12.234375 C 8.359375 -12.691406 7.390625 -12.921875 6.078125 -12.921875 Z M 6.078125 -12.921875 "/></g></g></g><g fill="#c29e0c" fill-opacity="1"><g transform="translate(245.775945, 322.697499)"><g><path d="M 1.640625 0 L 1.640625 -14.203125 L 3.1875 -14.203125 L 3.1875 0 Z M 1.640625 0 "/></g></g></g><g fill="#c29e0c" fill-opacity="1"><g transform="translate(250.594044, 322.697499)"><g><path d="M 5.796875 0.15625 C 2.648438 0.15625 0.914062 -1.296875 0.59375 -4.203125 L 2.046875 -4.40625 C 2.242188 -3.269531 2.644531 -2.453125 3.25 -1.953125 C 3.851562 -1.453125 4.738281 -1.203125 5.90625 -1.203125 C 6.882812 -1.203125 7.648438 -1.425781 8.203125 -1.875 C 8.765625 -2.320312 9.046875 -2.9375 9.046875 -3.71875 C 9.046875 -4.226562 8.925781 -4.632812 8.6875 -4.9375 C 8.457031 -5.25 8.101562 -5.5 7.625 -5.6875 C 7.15625 -5.882812 6.5625 -6.0625 5.84375 -6.21875 C 4.957031 -6.414062 4.1875 -6.65625 3.53125 -6.9375 C 2.882812 -7.21875 2.378906 -7.617188 2.015625 -8.140625 C 1.660156 -8.660156 1.484375 -9.378906 1.484375 -10.296875 C 1.484375 -11.085938 1.675781 -11.789062 2.0625 -12.40625 C 2.457031 -13.03125 3 -13.519531 3.6875 -13.875 C 4.375 -14.226562 5.160156 -14.40625 6.046875 -14.40625 C 7.265625 -14.40625 8.265625 -14.070312 9.046875 -13.40625 C 9.828125 -12.738281 10.289062 -11.8125 10.4375 -10.625 L 9.09375 -10.375 C 8.90625 -11.300781 8.5625 -11.976562 8.0625 -12.40625 C 7.5625 -12.832031 6.875 -13.046875 6 -13.046875 C 5.09375 -13.046875 4.367188 -12.800781 3.828125 -12.3125 C 3.285156 -11.820312 3.015625 -11.171875 3.015625 -10.359375 C 3.015625 -9.492188 3.296875 -8.867188 3.859375 -8.484375 C 4.421875 -8.097656 5.273438 -7.785156 6.421875 -7.546875 C 7.296875 -7.359375 8.039062 -7.125 8.65625 -6.84375 C 9.28125 -6.570312 9.753906 -6.191406 10.078125 -5.703125 C 10.410156 -5.222656 10.578125 -4.566406 10.578125 -3.734375 C 10.578125 -2.960938 10.375 -2.28125 9.96875 -1.6875 C 9.5625 -1.101562 9 -0.648438 8.28125 -0.328125 C 7.5625 -0.00390625 6.734375 0.15625 5.796875 0.15625 Z M 5.796875 0.15625 "/></g></g></g><g fill="#c29e0c" fill-opacity="1"><g transform="translate(261.909584, 322.697499)"><g><path d="M 10.921875 -14.203125 L 10.78125 -12.859375 L 6.234375 -12.859375 L 6.234375 0 L 4.6875 0 L 4.6875 -12.859375 L 0.046875 -12.859375 L 0.046875 -14.203125 Z M 10.921875 -14.203125 "/></g></g></g><g fill="#c29e0c" fill-opacity="1"><g transform="translate(272.825279, 322.697499)"><g><path d="M 5.796875 0.15625 C 2.648438 0.15625 0.914062 -1.296875 0.59375 -4.203125 L 2.046875 -4.40625 C 2.242188 -3.269531 2.644531 -2.453125 3.25 -1.953125 C 3.851562 -1.453125 4.738281 -1.203125 5.90625 -1.203125 C 6.882812 -1.203125 7.648438 -1.425781 8.203125 -1.875 C 8.765625 -2.320312 9.046875 -2.9375 9.046875 -3.71875 C 9.046875 -4.226562 8.925781 -4.632812 8.6875 -4.9375 C 8.457031 -5.25 8.101562 -5.5 7.625 -5.6875 C 7.15625 -5.882812 6.5625 -6.0625 5.84375 -6.21875 C 4.957031 -6.414062 4.1875 -6.65625 3.53125 -6.9375 C 2.882812 -7.21875 2.378906 -7.617188 2.015625 -8.140625 C 1.660156 -8.660156 1.484375 -9.378906 1.484375 -10.296875 C 1.484375 -11.085938 1.675781 -11.789062 2.0625 -12.40625 C 2.457031 -13.03125 3 -13.519531 3.6875 -13.875 C 4.375 -14.226562 5.160156 -14.40625 6.046875 -14.40625 C 7.265625 -14.40625 8.265625 -14.070312 9.046875 -13.40625 C 9.828125 -12.738281 10.289062 -11.8125 10.4375 -10.625 L 9.09375 -10.375 C 8.90625 -11.300781 8.5625 -11.976562 8.0625 -12.40625 C 7.5625 -12.832031 6.875 -13.046875 6 -13.046875 C 5.09375 -13.046875 4.367188 -12.800781 3.828125 -12.3125 C 3.285156 -11.820312 3.015625 -11.171875 3.015625 -10.359375 C 3.015625 -9.492188 3.296875 -8.867188 3.859375 -8.484375 C 4.421875 -8.097656 5.273438 -7.785156 6.421875 -7.546875 C 7.296875 -7.359375 8.039062 -7.125 8.65625 -6.84375 C 9.28125 -6.570312 9.753906 -6.191406 10.078125 -5.703125 C 10.410156 -5.222656 10.578125 -4.566406 10.578125 -3.734375 C 10.578125 -2.960938 10.375 -2.28125 9.96875 -1.6875 C 9.5625 -1.101562 9 -0.648438 8.28125 -0.328125 C 7.5625 -0.00390625 6.734375 0.15625 5.796875 0.15625 Z M 5.796875 0.15625 "/></g></g></g><g fill="#c29e0c" fill-opacity="1"><g transform="translate(193.705747, 348.947497)"><g/></g></g><g fill="#c29e0c" fill-opacity="1"><g transform="translate(112.497365, 240.342286)"><g><path d="M 5.011719 0.5 L 7.71875 0.769531 L 9.097656 -13.074219 L 22.367188 -11.75 L 22.613281 -14.234375 L 9.347656 -15.558594 L 10.5625 -27.757812 L 24.980469 -26.324219 L 25.234375 -28.851562 L 8.109375 -30.558594 Z M 5.011719 0.5 "/></g></g></g><g fill="#c29e0c" fill-opacity="1"><g transform="translate(146.186313, 243.520128)"><g><path d="M 0.980469 0.0390625 L 3.875 0.160156 L 7.40625 -7.550781 L 23.621094 -6.882812 L 26.550781 1.09375 L 29.402344 1.210938 L 17.765625 -30.507812 L 15.183594 -30.613281 Z M 8.578125 -10 L 16.324219 -26.863281 L 22.699219 -9.417969 Z M 8.578125 -10 "/></g></g></g><g fill="#c29e0c" fill-opacity="1"><g transform="translate(185.541503, 244.849678)"><g><path d="M 13.507812 -0.28125 L 16.09375 -0.335938 L 27.925781 -31.796875 L 25.074219 -31.738281 L 19.15625 -16.007812 L 14.722656 -4.050781 L 3.230469 -31.285156 L 0.332031 -31.226562 Z M 13.507812 -0.28125 "/></g></g></g><g fill="#c29e0c" fill-opacity="1"><g transform="translate(224.114732, 243.882554)"><g><path d="M 18.925781 -1.101562 C 28.429688 -1.949219 34.371094 -9.148438 33.523438 -18.652344 C 32.679688 -28.15625 25.558594 -34.191406 16.054688 -33.347656 C 6.597656 -32.503906 0.613281 -25.300781 1.457031 -15.796875 C 2.304688 -6.292969 9.464844 -0.261719 18.925781 -1.101562 Z M 4.210938 -16.042969 C 3.5 -24.035156 8.4375 -29.9375 16.296875 -30.636719 C 24.203125 -31.339844 30.101562 -26.40625 30.816406 -18.410156 C 31.523438 -10.460938 26.589844 -4.515625 18.683594 -3.8125 C 10.824219 -3.113281 4.917969 -8.09375 4.210938 -16.042969 Z M 4.210938 -16.042969 "/></g></g></g><g clip-path="url(#1b62f6c753)"><path fill="#60aac6" d="M 150.988281 109.589844 L 161.414062 127.5625 L 150.988281 145.585938 L 130.183594 145.585938 L 119.757812 127.5625 L 130.183594 109.589844 Z M 150.988281 109.589844 " fill-opacity="1" fill-rule="nonzero"/></g><path fill="#f4978f" d="M 195.351562 77.226562 L 208.039062 99.128906 L 195.351562 121.03125 L 170.074219 121.03125 L 157.382812 99.125 L 170.070312 77.222656 Z M 195.351562 77.226562 " fill-opacity="1" fill-rule="nonzero"/><g clip-path="url(#f350a29f20)"><path fill="#f1c409" d="M 194.90625 133.949219 L 207.546875 155.851562 L 194.90625 177.757812 L 169.578125 177.757812 L 156.890625 155.851562 L 169.578125 133.949219 Z M 194.90625 133.949219 " fill-opacity="1" fill-rule="nonzero"/></g><g clip-path="url(#a4c7fedbe3)"><path fill="#7d9fd1" d="M 251.90625 37.496094 L 268.578125 66.324219 L 251.90625 95.203125 L 218.515625 95.203125 L 201.84375 66.324219 L 218.515625 37.496094 Z M 251.90625 37.496094 " fill-opacity="1" fill-rule="nonzero"/></g></svg>