<svg xmlns="http://www.w3.org/2000/svg" xmlns:xlink="http://www.w3.org/1999/xlink" width="500" zoomAndPan="magnify" viewBox="0 0 375 374.999991" height="500" preserveAspectRatio="xMidYMid meet" version="1.0"><defs><g/><clipPath id="fa7d32df53"><path d="M 119.167969 109 L 162 109 L 162 146 L 119.167969 146 Z M 119.167969 109 " clip-rule="nonzero"/></clipPath><clipPath id="79a0dbbcc6"><path d="M 156 133 L 208 133 L 208 177.75 L 156 177.75 Z M 156 133 " clip-rule="nonzero"/></clipPath><clipPath id="6ad4b346fa"><path d="M 201 37.5 L 269 37.5 L 269 96 L 201 96 Z M 201 37.5 " clip-rule="nonzero"/></clipPath></defs><rect x="-37.5" width="450" fill="#ffffff" y="-37.499999" height="449.999989" fill-opacity="1"/><rect x="-37.5" width="450" fill="#ffffff" y="-37.499999" height="449.999989" fill-opacity="1"/><g fill="#c8b790" fill-opacity="1"><g transform="translate(73.178407, 289.413437)"><g><path d="M 1.226562 0 L 2.515625 0 L 1.59375 -13.664062 C 1.578125 -13.925781 1.640625 -14.066406 1.75 -14.066406 C 1.824219 -14.066406 1.933594 -13.988281 2.039062 -13.835938 C 5.859375 -8.4375 8.605469 -4.585938 11.855469 0 L 13.082031 0 L 13.082031 -15.335938 L 11.792969 -15.335938 L 12.714844 -1.671875 C 12.730469 -1.410156 12.667969 -1.273438 12.5625 -1.273438 C 12.484375 -1.273438 12.378906 -1.351562 12.269531 -1.503906 C 8.773438 -6.441406 5.597656 -10.921875 2.484375 -15.335938 L 1.226562 -15.335938 Z M 1.226562 0 "/></g></g></g><g fill="#c8b790" fill-opacity="1"><g transform="translate(87.479527, 289.413437)"><g><path d="M 1.65625 0 L 2.46875 -2.867188 C 2.605469 -3.359375 2.976562 -4.019531 3.3125 -4.265625 C 4.203125 -4.90625 5.167969 -5.214844 6.148438 -5.214844 C 7.882812 -5.214844 10.183594 -4.1875 10.9375 -2.5 L 12.054688 0 L 13.40625 0 L 6.5625 -15.335938 L 5.214844 -15.335938 L 5.535156 -14.617188 L 0.308594 0 Z M 3.328125 -5.8125 L 5.507812 -13.390625 C 5.582031 -13.636719 5.675781 -13.757812 5.78125 -13.757812 C 5.875 -13.757812 5.980469 -13.648438 6.074219 -13.4375 L 10.03125 -4.570312 C 10.214844 -4.15625 10.121094 -4.078125 9.769531 -4.371094 C 8.605469 -5.320312 7.132812 -6.011719 5.691406 -6.011719 C 5.015625 -6.011719 4.355469 -5.859375 3.742188 -5.523438 C 3.589844 -5.445312 3.480469 -5.398438 3.40625 -5.398438 C 3.265625 -5.398438 3.25 -5.535156 3.328125 -5.8125 Z M 3.328125 -5.8125 "/></g></g></g><g fill="#c8b790" fill-opacity="1"><g transform="translate(100.922283, 289.413437)"><g><path d="M 0.921875 -15.335938 L 0.921875 -13.972656 C 2.179688 -14.523438 4.816406 -15.03125 5.398438 -15.03125 C 5.949219 -15.03125 6.210938 -14.816406 6.210938 -13.988281 L 6.210938 0 L 7.4375 0 L 7.4375 -13.988281 C 7.4375 -14.816406 7.699219 -15.03125 8.25 -15.03125 C 8.835938 -15.03125 11.472656 -14.523438 12.730469 -13.972656 L 12.730469 -15.335938 Z M 0.921875 -15.335938 "/></g></g></g><g fill="#c8b790" fill-opacity="1"><g transform="translate(114.564304, 289.413437)"><g><path d="M 1.226562 0 L 2.453125 0 L 2.453125 -15.335938 L 1.226562 -15.335938 Z M 1.226562 0 "/></g></g></g><g fill="#c8b790" fill-opacity="1"><g transform="translate(118.243053, 289.413437)"><g><path d="M 8.421875 0.308594 C 12.636719 0.308594 16.089844 -2.882812 16.089844 -7.667969 C 16.089844 -12.453125 12.636719 -15.644531 8.421875 -15.644531 C 4.203125 -15.644531 0.765625 -12.453125 0.765625 -7.667969 C 0.765625 -2.882812 4.203125 0.308594 8.421875 0.308594 Z M 1.992188 -7.667969 C 1.992188 -12.269531 4.878906 -15.335938 8.421875 -15.335938 C 11.964844 -15.335938 14.863281 -12.269531 14.863281 -7.667969 C 14.863281 -3.066406 11.964844 0 8.421875 0 C 4.878906 0 1.992188 -3.066406 1.992188 -7.667969 Z M 1.992188 -7.667969 "/></g></g></g><g fill="#c8b790" fill-opacity="1"><g transform="translate(135.088641, 289.413437)"><g><path d="M 1.226562 0 L 2.515625 0 L 1.59375 -13.664062 C 1.578125 -13.925781 1.640625 -14.066406 1.75 -14.066406 C 1.824219 -14.066406 1.933594 -13.988281 2.039062 -13.835938 C 5.859375 -8.4375 8.605469 -4.585938 11.855469 0 L 13.082031 0 L 13.082031 -15.335938 L 11.792969 -15.335938 L 12.714844 -1.671875 C 12.730469 -1.410156 12.667969 -1.273438 12.5625 -1.273438 C 12.484375 -1.273438 12.378906 -1.351562 12.269531 -1.503906 C 8.773438 -6.441406 5.597656 -10.921875 2.484375 -15.335938 L 1.226562 -15.335938 Z M 1.226562 0 "/></g></g></g><g fill="#c8b790" fill-opacity="1"><g transform="translate(149.38976, 289.413437)"><g><path d="M 1.65625 0 L 2.46875 -2.867188 C 2.605469 -3.359375 2.976562 -4.019531 3.3125 -4.265625 C 4.203125 -4.90625 5.167969 -5.214844 6.148438 -5.214844 C 7.882812 -5.214844 10.183594 -4.1875 10.9375 -2.5 L 12.054688 0 L 13.40625 0 L 6.5625 -15.335938 L 5.214844 -15.335938 L 5.535156 -14.617188 L 0.308594 0 Z M 3.328125 -5.8125 L 5.507812 -13.390625 C 5.582031 -13.636719 5.675781 -13.757812 5.78125 -13.757812 C 5.875 -13.757812 5.980469 -13.648438 6.074219 -13.4375 L 10.03125 -4.570312 C 10.214844 -4.15625 10.121094 -4.078125 9.769531 -4.371094 C 8.605469 -5.320312 7.132812 -6.011719 5.691406 -6.011719 C 5.015625 -6.011719 4.355469 -5.859375 3.742188 -5.523438 C 3.589844 -5.445312 3.480469 -5.398438 3.40625 -5.398438 C 3.265625 -5.398438 3.25 -5.535156 3.328125 -5.8125 Z M 3.328125 -5.8125 "/></g></g></g><g fill="#c8b790" fill-opacity="1"><g transform="translate(162.832516, 289.413437)"><g><path d="M 11.855469 0 L 11.855469 -1.363281 C 10.292969 -0.84375 6.042969 -0.308594 3.25 -0.308594 C 2.699219 -0.308594 2.4375 -0.519531 2.4375 -1.351562 L 2.4375 -15.335938 L 1.226562 -15.335938 L 1.226562 0 Z M 11.855469 0 "/></g></g></g><g fill="#c8b790" fill-opacity="1"><g transform="translate(175.355579, 289.413437)"><g/></g></g><g fill="#c8b790" fill-opacity="1"><g transform="translate(179.95401, 289.413437)"><g><path d="M 1.226562 0 L 2.453125 0 C 2.453125 0 2.4375 -13.605469 2.4375 -14.066406 C 2.4375 -14.894531 2.699219 -15.03125 3.25 -15.03125 L 6.933594 -15.03125 C 10 -15.03125 11.609375 -13.464844 11.609375 -10.964844 C 11.609375 -8.464844 10 -6.902344 6.933594 -6.902344 L 3.925781 -6.902344 L 3.925781 -6.59375 L 5.292969 -6.59375 C 7.132812 -6.59375 9.585938 -1.304688 11.765625 0 L 13.496094 0 C 12.808594 -0.460938 11.609375 -1.5625 10.660156 -2.835938 C 9.539062 -4.339844 8.695312 -5.492188 7.835938 -6.164062 C 7.46875 -6.457031 7.378906 -6.59375 7.835938 -6.59375 L 8.28125 -6.59375 C 12.191406 -6.640625 13.066406 -9.433594 13.066406 -10.964844 C 13.066406 -12.5 12.191406 -15.335938 8.28125 -15.335938 L 1.226562 -15.335938 Z M 1.226562 0 "/></g></g></g><g fill="#c8b790" fill-opacity="1"><g transform="translate(193.749312, 289.413437)"><g><path d="M 1.226562 0 L 11.855469 0 L 11.855469 -1.363281 C 10.292969 -0.84375 6.042969 -0.308594 3.25 -0.308594 C 2.699219 -0.308594 2.4375 -0.519531 2.4375 -1.351562 L 2.453125 -7.332031 C 2.453125 -7.792969 2.761719 -8.007812 3.222656 -8.007812 C 4.921875 -8.007812 8.542969 -7.53125 10.351562 -7.085938 L 10.351562 -8.375 L 3.207031 -8.375 C 2.746094 -8.375 2.4375 -8.679688 2.4375 -9.140625 L 2.4375 -13.988281 C 2.4375 -14.816406 2.699219 -15.03125 3.25 -15.03125 C 6.042969 -15.03125 10.292969 -14.492188 11.855469 -13.972656 L 11.855469 -15.335938 L 1.226562 -15.335938 Z M 1.226562 0 "/></g></g></g><g fill="#c8b790" fill-opacity="1"><g transform="translate(206.517622, 289.413437)"><g><path d="M 0.765625 -7.667969 C 0.765625 -2.882812 4.203125 0.308594 8.421875 0.308594 C 11.042969 0.308594 13.558594 -0.507812 14.308594 -1.640625 L 14.308594 -8.3125 L 12.992188 -8.3125 L 12.992188 -3.207031 C 12.992188 -1.195312 10.105469 0 8.421875 0 C 4.878906 0 1.992188 -3.066406 1.992188 -7.667969 C 1.992188 -12.269531 4.878906 -15.335938 8.421875 -15.335938 C 11.042969 -15.335938 13.28125 -13.527344 13.511719 -11.808594 C 13.511719 -11.808594 14.203125 -11.777344 14.203125 -12.652344 C 14.203125 -14.632812 11.195312 -15.644531 8.421875 -15.644531 C 4.203125 -15.644531 0.765625 -12.453125 0.765625 -7.667969 Z M 0.765625 -7.667969 "/></g></g></g><g fill="#c8b790" fill-opacity="1"><g transform="translate(221.922376, 289.413437)"><g><path d="M 1.226562 0 L 2.453125 0 L 2.453125 -15.335938 L 1.226562 -15.335938 Z M 1.226562 0 "/></g></g></g><g fill="#c8b790" fill-opacity="1"><g transform="translate(225.601124, 289.413437)"><g><path d="M 0.84375 -3.234375 C 0.84375 -1.136719 3.421875 0.308594 7.179688 0.308594 C 10.246094 0.308594 13.328125 -1.136719 13.328125 -4.265625 C 13.328125 -10.613281 2.164062 -7.363281 2.164062 -11.578125 C 2.164062 -14.019531 4.003906 -15.335938 6.902344 -15.335938 C 9.449219 -15.335938 11.765625 -14.078125 12.207031 -11.949219 C 12.652344 -12.101562 12.820312 -12.484375 12.820312 -12.960938 C 12.820312 -14.90625 9.601562 -15.644531 7.164062 -15.644531 C 4.292969 -15.644531 1.074219 -14.492188 1.074219 -11.503906 C 1.074219 -5.414062 12.222656 -9.570312 12.222656 -3.835938 C 12.222656 -1.304688 9.832031 0 7.179688 0 C 4.480469 0 2.023438 -1.6875 2.023438 -3.34375 C 2.023438 -3.820312 2.191406 -4.203125 2.636719 -4.355469 C 2.421875 -4.539062 2.191406 -4.617188 1.980469 -4.617188 C 1.378906 -4.617188 0.84375 -4.050781 0.84375 -3.234375 Z M 0.84375 -3.234375 "/></g></g></g><g fill="#c8b790" fill-opacity="1"><g transform="translate(239.626339, 289.413437)"><g><path d="M 0.921875 -15.335938 L 0.921875 -13.972656 C 2.179688 -14.523438 4.816406 -15.03125 5.398438 -15.03125 C 5.949219 -15.03125 6.210938 -14.816406 6.210938 -13.988281 L 6.210938 0 L 7.4375 0 L 7.4375 -13.988281 C 7.4375 -14.816406 7.699219 -15.03125 8.25 -15.03125 C 8.835938 -15.03125 11.472656 -14.523438 12.730469 -13.972656 L 12.730469 -15.335938 Z M 0.921875 -15.335938 "/></g></g></g><g fill="#c8b790" fill-opacity="1"><g transform="translate(253.268359, 289.413437)"><g><path d="M 1.226562 0 L 2.453125 0 C 2.453125 0 2.4375 -13.605469 2.4375 -14.066406 C 2.4375 -14.894531 2.699219 -15.03125 3.25 -15.03125 L 6.933594 -15.03125 C 10 -15.03125 11.609375 -13.464844 11.609375 -10.964844 C 11.609375 -8.464844 10 -6.902344 6.933594 -6.902344 L 3.925781 -6.902344 L 3.925781 -6.59375 L 5.292969 -6.59375 C 7.132812 -6.59375 9.585938 -1.304688 11.765625 0 L 13.496094 0 C 12.808594 -0.460938 11.609375 -1.5625 10.660156 -2.835938 C 9.539062 -4.339844 8.695312 -5.492188 7.835938 -6.164062 C 7.46875 -6.457031 7.378906 -6.59375 7.835938 -6.59375 L 8.28125 -6.59375 C 12.191406 -6.640625 13.066406 -9.433594 13.066406 -10.964844 C 13.066406 -12.5 12.191406 -15.335938 8.28125 -15.335938 L 1.226562 -15.335938 Z M 1.226562 0 "/></g></g></g><g fill="#c8b790" fill-opacity="1"><g transform="translate(267.063651, 289.413437)"><g><path d="M 5.320312 -7.777344 C 5.582031 -7.40625 5.734375 -6.824219 5.734375 -6.363281 L 5.734375 0 L 6.964844 0 L 6.964844 -6.363281 C 6.964844 -6.824219 7.117188 -7.40625 7.378906 -7.777344 L 12.652344 -15.335938 L 11.335938 -15.335938 L 7.164062 -8.035156 C 7.039062 -7.820312 6.902344 -7.730469 6.765625 -7.730469 C 6.640625 -7.730469 6.519531 -7.820312 6.394531 -8.007812 L 1.351562 -15.335938 L 0.046875 -15.335938 Z M 5.320312 -7.777344 "/></g></g></g><g fill="#c8b790" fill-opacity="1"><g transform="translate(280.01589, 289.413437)"><g/></g></g><g fill="#c8b790" fill-opacity="1"><g transform="translate(284.614309, 289.413437)"><g><path d="M 8.421875 0.308594 C 12.636719 0.308594 16.089844 -2.882812 16.089844 -7.667969 C 16.089844 -12.453125 12.636719 -15.644531 8.421875 -15.644531 C 4.203125 -15.644531 0.765625 -12.453125 0.765625 -7.667969 C 0.765625 -2.882812 4.203125 0.308594 8.421875 0.308594 Z M 1.992188 -7.667969 C 1.992188 -12.269531 4.878906 -15.335938 8.421875 -15.335938 C 11.964844 -15.335938 14.863281 -12.269531 14.863281 -7.667969 C 14.863281 -3.066406 11.964844 0 8.421875 0 C 4.878906 0 1.992188 -3.066406 1.992188 -7.667969 Z M 1.992188 -7.667969 "/></g></g></g><g fill="#c8b790" fill-opacity="1"><g transform="translate(301.459896, 289.413437)"><g><path d="M 2.453125 0 L 2.453125 -7.332031 C 2.453125 -7.792969 2.761719 -8.007812 3.222656 -8.007812 C 4.921875 -8.007812 8.542969 -7.53125 10.351562 -7.085938 L 10.351562 -8.375 L 3.207031 -8.375 C 2.746094 -8.375 2.4375 -8.679688 2.4375 -9.140625 L 2.4375 -13.988281 C 2.4375 -14.816406 2.699219 -15.03125 3.25 -15.03125 C 6.042969 -15.03125 10.292969 -14.492188 11.855469 -13.972656 L 11.855469 -15.335938 L 1.226562 -15.335938 L 1.226562 0 Z M 2.453125 0 "/></g></g></g><g fill="#c8b790" fill-opacity="1"><g transform="translate(107.901061, 310.413436)"><g><path d="M 0.921875 -15.335938 L 0.921875 -13.972656 C 2.179688 -14.523438 4.816406 -15.03125 5.398438 -15.03125 C 5.949219 -15.03125 6.210938 -14.816406 6.210938 -13.988281 L 6.210938 0 L 7.4375 0 L 7.4375 -13.988281 C 7.4375 -14.816406 7.699219 -15.03125 8.25 -15.03125 C 8.835938 -15.03125 11.472656 -14.523438 12.730469 -13.972656 L 12.730469 -15.335938 Z M 0.921875 -15.335938 "/></g></g></g><g fill="#c8b790" fill-opacity="1"><g transform="translate(121.543082, 310.413436)"><g><path d="M 1.226562 0 L 11.855469 0 L 11.855469 -1.363281 C 10.292969 -0.84375 6.042969 -0.308594 3.25 -0.308594 C 2.699219 -0.308594 2.4375 -0.519531 2.4375 -1.351562 L 2.453125 -7.332031 C 2.453125 -7.792969 2.761719 -8.007812 3.222656 -8.007812 C 4.921875 -8.007812 8.542969 -7.53125 10.351562 -7.085938 L 10.351562 -8.375 L 3.207031 -8.375 C 2.746094 -8.375 2.4375 -8.679688 2.4375 -9.140625 L 2.4375 -13.988281 C 2.4375 -14.816406 2.699219 -15.03125 3.25 -15.03125 C 6.042969 -15.03125 10.292969 -14.492188 11.855469 -13.972656 L 11.855469 -15.335938 L 1.226562 -15.335938 Z M 1.226562 0 "/></g></g></g><g fill="#c8b790" fill-opacity="1"><g transform="translate(134.311392, 310.413436)"><g><path d="M 1.65625 0 L 2.46875 -2.867188 C 2.605469 -3.359375 2.976562 -4.019531 3.3125 -4.265625 C 4.203125 -4.90625 5.167969 -5.214844 6.148438 -5.214844 C 7.882812 -5.214844 10.183594 -4.1875 10.9375 -2.5 L 12.054688 0 L 13.40625 0 L 6.5625 -15.335938 L 5.214844 -15.335938 L 5.535156 -14.617188 L 0.308594 0 Z M 3.328125 -5.8125 L 5.507812 -13.390625 C 5.582031 -13.636719 5.675781 -13.757812 5.78125 -13.757812 C 5.875 -13.757812 5.980469 -13.648438 6.074219 -13.4375 L 10.03125 -4.570312 C 10.214844 -4.15625 10.121094 -4.078125 9.769531 -4.371094 C 8.605469 -5.320312 7.132812 -6.011719 5.691406 -6.011719 C 5.015625 -6.011719 4.355469 -5.859375 3.742188 -5.523438 C 3.589844 -5.445312 3.480469 -5.398438 3.40625 -5.398438 C 3.265625 -5.398438 3.25 -5.535156 3.328125 -5.8125 Z M 3.328125 -5.8125 "/></g></g></g><g fill="#c8b790" fill-opacity="1"><g transform="translate(147.754148, 310.413436)"><g/></g></g><g fill="#c8b790" fill-opacity="1"><g transform="translate(152.352578, 310.413436)"><g><path d="M 0.921875 -15.335938 L 0.921875 -13.972656 C 2.179688 -14.523438 4.816406 -15.03125 5.398438 -15.03125 C 5.949219 -15.03125 6.210938 -14.816406 6.210938 -13.988281 L 6.210938 0 L 7.4375 0 L 7.4375 -13.988281 C 7.4375 -14.816406 7.699219 -15.03125 8.25 -15.03125 C 8.835938 -15.03125 11.472656 -14.523438 12.730469 -13.972656 L 12.730469 -15.335938 Z M 0.921875 -15.335938 "/></g></g></g><g fill="#c8b790" fill-opacity="1"><g transform="translate(165.994599, 310.413436)"><g><path d="M 2.453125 0 L 2.453125 -4.308594 C 2.453125 -7.394531 6.257812 -9.078125 9.003906 -9.078125 C 10.582031 -9.078125 11.808594 -8.527344 11.808594 -7.394531 L 11.808594 0 L 13.035156 0 L 13.035156 -15.335938 L 11.808594 -15.335938 L 11.808594 -8.636719 C 10.75 -9.234375 9.417969 -9.539062 8.035156 -9.539062 C 5.949219 -9.539062 3.789062 -8.820312 2.453125 -7.269531 L 2.453125 -15.335938 L 1.226562 -15.335938 L 1.226562 0 Z M 2.453125 0 "/></g></g></g><g fill="#c8b790" fill-opacity="1"><g transform="translate(180.249736, 310.413436)"><g><path d="M 1.226562 0 L 11.855469 0 L 11.855469 -1.363281 C 10.292969 -0.84375 6.042969 -0.308594 3.25 -0.308594 C 2.699219 -0.308594 2.4375 -0.519531 2.4375 -1.351562 L 2.453125 -7.332031 C 2.453125 -7.792969 2.761719 -8.007812 3.222656 -8.007812 C 4.921875 -8.007812 8.542969 -7.53125 10.351562 -7.085938 L 10.351562 -8.375 L 3.207031 -8.375 C 2.746094 -8.375 2.4375 -8.679688 2.4375 -9.140625 L 2.4375 -13.988281 C 2.4375 -14.816406 2.699219 -15.03125 3.25 -15.03125 C 6.042969 -15.03125 10.292969 -14.492188 11.855469 -13.972656 L 11.855469 -15.335938 L 1.226562 -15.335938 Z M 1.226562 0 "/></g></g></g><g fill="#c8b790" fill-opacity="1"><g transform="translate(193.018046, 310.413436)"><g><path d="M 1.226562 0 L 2.453125 0 C 2.453125 0 2.4375 -13.605469 2.4375 -14.066406 C 2.4375 -14.894531 2.699219 -15.03125 3.25 -15.03125 L 6.933594 -15.03125 C 10 -15.03125 11.609375 -13.464844 11.609375 -10.964844 C 11.609375 -8.464844 10 -6.902344 6.933594 -6.902344 L 3.925781 -6.902344 L 3.925781 -6.59375 L 5.292969 -6.59375 C 7.132812 -6.59375 9.585938 -1.304688 11.765625 0 L 13.496094 0 C 12.808594 -0.460938 11.609375 -1.5625 10.660156 -2.835938 C 9.539062 -4.339844 8.695312 -5.492188 7.835938 -6.164062 C 7.46875 -6.457031 7.378906 -6.59375 7.835938 -6.59375 L 8.28125 -6.59375 C 12.191406 -6.640625 13.066406 -9.433594 13.066406 -10.964844 C 13.066406 -12.5 12.191406 -15.335938 8.28125 -15.335938 L 1.226562 -15.335938 Z M 1.226562 0 "/></g></g></g><g fill="#c8b790" fill-opacity="1"><g transform="translate(206.813348, 310.413436)"><g><path d="M 1.65625 0 L 2.46875 -2.867188 C 2.605469 -3.359375 2.976562 -4.019531 3.3125 -4.265625 C 4.203125 -4.90625 5.167969 -5.214844 6.148438 -5.214844 C 7.882812 -5.214844 10.183594 -4.1875 10.9375 -2.5 L 12.054688 0 L 13.40625 0 L 6.5625 -15.335938 L 5.214844 -15.335938 L 5.535156 -14.617188 L 0.308594 0 Z M 3.328125 -5.8125 L 5.507812 -13.390625 C 5.582031 -13.636719 5.675781 -13.757812 5.78125 -13.757812 C 5.875 -13.757812 5.980469 -13.648438 6.074219 -13.4375 L 10.03125 -4.570312 C 10.214844 -4.15625 10.121094 -4.078125 9.769531 -4.371094 C 8.605469 -5.320312 7.132812 -6.011719 5.691406 -6.011719 C 5.015625 -6.011719 4.355469 -5.859375 3.742188 -5.523438 C 3.589844 -5.445312 3.480469 -5.398438 3.40625 -5.398438 C 3.265625 -5.398438 3.25 -5.535156 3.328125 -5.8125 Z M 3.328125 -5.8125 "/></g></g></g><g fill="#c8b790" fill-opacity="1"><g transform="translate(220.256104, 310.413436)"><g><path d="M 1.226562 -15.335938 L 1.226562 0 L 2.453125 0 L 2.453125 -6.59375 L 8.28125 -6.59375 C 12.191406 -6.59375 13.066406 -9.433594 13.066406 -10.964844 C 13.066406 -12.5 12.191406 -15.335938 8.28125 -15.335938 Z M 2.453125 -7.667969 L 2.453125 -13.988281 C 2.453125 -14.816406 2.714844 -15.03125 3.265625 -15.03125 C 3.910156 -15.03125 5.722656 -15.046875 6.933594 -15.046875 C 10 -15.046875 11.609375 -13.464844 11.609375 -10.964844 C 11.609375 -8.464844 10 -6.902344 6.933594 -6.902344 L 3.222656 -6.902344 C 2.761719 -6.902344 2.453125 -7.207031 2.453125 -7.667969 Z M 2.453125 -7.667969 "/></g></g></g><g fill="#c8b790" fill-opacity="1"><g transform="translate(234.143371, 310.413436)"><g><path d="M 1.226562 0 L 2.453125 0 L 2.453125 -15.335938 L 1.226562 -15.335938 Z M 1.226562 0 "/></g></g></g><g fill="#c8b790" fill-opacity="1"><g transform="translate(237.82212, 310.413436)"><g><path d="M 0.84375 -3.234375 C 0.84375 -1.136719 3.421875 0.308594 7.179688 0.308594 C 10.246094 0.308594 13.328125 -1.136719 13.328125 -4.265625 C 13.328125 -10.613281 2.164062 -7.363281 2.164062 -11.578125 C 2.164062 -14.019531 4.003906 -15.335938 6.902344 -15.335938 C 9.449219 -15.335938 11.765625 -14.078125 12.207031 -11.949219 C 12.652344 -12.101562 12.820312 -12.484375 12.820312 -12.960938 C 12.820312 -14.90625 9.601562 -15.644531 7.164062 -15.644531 C 4.292969 -15.644531 1.074219 -14.492188 1.074219 -11.503906 C 1.074219 -5.414062 12.222656 -9.570312 12.222656 -3.835938 C 12.222656 -1.304688 9.832031 0 7.179688 0 C 4.480469 0 2.023438 -1.6875 2.023438 -3.34375 C 2.023438 -3.820312 2.191406 -4.203125 2.636719 -4.355469 C 2.421875 -4.539062 2.191406 -4.617188 1.980469 -4.617188 C 1.378906 -4.617188 0.84375 -4.050781 0.84375 -3.234375 Z M 0.84375 -3.234375 "/></g></g></g><g fill="#c8b790" fill-opacity="1"><g transform="translate(251.847334, 310.413436)"><g><path d="M 0.921875 -15.335938 L 0.921875 -13.972656 C 2.179688 -14.523438 4.816406 -15.03125 5.398438 -15.03125 C 5.949219 -15.03125 6.210938 -14.816406 6.210938 -13.988281 L 6.210938 0 L 7.4375 0 L 7.4375 -13.988281 C 7.4375 -14.816406 7.699219 -15.03125 8.25 -15.03125 C 8.835938 -15.03125 11.472656 -14.523438 12.730469 -13.972656 L 12.730469 -15.335938 Z M 0.921875 -15.335938 "/></g></g></g><g fill="#c8b790" fill-opacity="1"><g transform="translate(265.489355, 310.413436)"><g><path d="M 0.84375 -3.234375 C 0.84375 -1.136719 3.421875 0.308594 7.179688 0.308594 C 10.246094 0.308594 13.328125 -1.136719 13.328125 -4.265625 C 13.328125 -10.613281 2.164062 -7.363281 2.164062 -11.578125 C 2.164062 -14.019531 4.003906 -15.335938 6.902344 -15.335938 C 9.449219 -15.335938 11.765625 -14.078125 12.207031 -11.949219 C 12.652344 -12.101562 12.820312 -12.484375 12.820312 -12.960938 C 12.820312 -14.90625 9.601562 -15.644531 7.164062 -15.644531 C 4.292969 -15.644531 1.074219 -14.492188 1.074219 -11.503906 C 1.074219 -5.414062 12.222656 -9.570312 12.222656 -3.835938 C 12.222656 -1.304688 9.832031 0 7.179688 0 C 4.480469 0 2.023438 -1.6875 2.023438 -3.34375 C 2.023438 -3.820312 2.191406 -4.203125 2.636719 -4.355469 C 2.421875 -4.539062 2.191406 -4.617188 1.980469 -4.617188 C 1.378906 -4.617188 0.84375 -4.050781 0.84375 -3.234375 Z M 0.84375 -3.234375 "/></g></g></g><g fill="#c8b790" fill-opacity="1"><g transform="translate(193.705747, 331.413434)"><g/></g></g><g fill="#c8b790" fill-opacity="1"><g transform="translate(191.408872, 352.413433)"><g/></g></g><g fill="#c29e0c" fill-opacity="1"><g transform="translate(112.497365, 240.342269)"><g><path d="M 5.011719 0.5 L 7.71875 0.769531 L 9.097656 -13.074219 L 22.367188 -11.75 L 22.613281 -14.234375 L 9.347656 -15.558594 L 10.5625 -27.757812 L 24.980469 -26.324219 L 25.234375 -28.851562 L 8.109375 -30.558594 Z M 5.011719 0.5 "/></g></g></g><g fill="#c29e0c" fill-opacity="1"><g transform="translate(146.186313, 243.520157)"><g><path d="M 0.980469 0.0390625 L 3.875 0.160156 L 7.40625 -7.550781 L 23.621094 -6.882812 L 26.550781 1.09375 L 29.402344 1.210938 L 17.765625 -30.507812 L 15.183594 -30.613281 Z M 8.578125 -10 L 16.324219 -26.863281 L 22.699219 -9.417969 Z M 8.578125 -10 "/></g></g></g><g fill="#c29e0c" fill-opacity="1"><g transform="translate(185.541503, 244.849678)"><g><path d="M 13.507812 -0.28125 L 16.09375 -0.335938 L 27.925781 -31.796875 L 25.074219 -31.738281 L 19.15625 -16.007812 L 14.722656 -4.050781 L 3.230469 -31.285156 L 0.332031 -31.226562 Z M 13.507812 -0.28125 "/></g></g></g><g fill="#c29e0c" fill-opacity="1"><g transform="translate(224.114732, 243.882526)"><g><path d="M 18.925781 -1.101562 C 28.429688 -1.949219 34.371094 -9.148438 33.523438 -18.652344 C 32.679688 -28.15625 25.558594 -34.191406 16.054688 -33.347656 C 6.597656 -32.503906 0.613281 -25.300781 1.457031 -15.796875 C 2.304688 -6.292969 9.464844 -0.261719 18.925781 -1.101562 Z M 4.210938 -16.042969 C 3.5 -24.035156 8.4375 -29.9375 16.296875 -30.636719 C 24.203125 -31.339844 30.101562 -26.40625 30.816406 -18.410156 C 31.523438 -10.460938 26.589844 -4.515625 18.683594 -3.8125 C 10.824219 -3.113281 4.917969 -8.09375 4.210938 -16.042969 Z M 4.210938 -16.042969 "/></g></g></g><g clip-path="url(#fa7d32df53)"><path fill="#60aac6" d="M 150.988281 109.589844 L 161.414062 127.5625 L 150.988281 145.585938 L 130.183594 145.585938 L 119.757812 127.5625 L 130.183594 109.589844 Z M 150.988281 109.589844 " fill-opacity="1" fill-rule="nonzero"/></g><path fill="#f4978f" d="M 195.351562 77.226562 L 208.039062 99.128906 L 195.351562 121.03125 L 170.074219 121.03125 L 157.382812 99.125 L 170.070312 77.222656 Z M 195.351562 77.226562 " fill-opacity="1" fill-rule="nonzero"/><g clip-path="url(#79a0dbbcc6)"><path fill="#f1c409" d="M 194.90625 133.949219 L 207.546875 155.851562 L 194.90625 177.757812 L 169.578125 177.757812 L 156.890625 155.851562 L 169.578125 133.949219 Z M 194.90625 133.949219 " fill-opacity="1" fill-rule="nonzero"/></g><g clip-path="url(#6ad4b346fa)"><path fill="#7d9fd1" d="M 251.90625 37.496094 L 268.578125 66.324219 L 251.90625 95.203125 L 218.515625 95.203125 L 201.84375 66.324219 L 218.515625 37.496094 Z M 251.90625 37.496094 " fill-opacity="1" fill-rule="nonzero"/></g></svg>